<svg width="38" height="38" viewBox="0 0 38 38" fill="none" xmlns="http://www.w3.org/2000/svg">
<path d="M19 0C8.50656 0 0 8.50656 0 19C0 29.4934 8.50656 38 19 38C29.4934 38 38 29.4934 38 19C38 8.50656 29.4934 0 19 0ZM19 3.67742C27.4682 3.67742 34.3226 10.5305 34.3226 19C34.3226 27.4682 27.4695 34.3226 19 34.3226C10.5318 34.3226 3.67742 27.4695 3.67742 19C3.67742 10.5318 10.5305 3.67742 19 3.67742ZM29.7414 13.6576L28.0149 11.9171C27.6573 11.5566 27.0752 11.5542 26.7148 11.9119L15.8854 22.6542L11.3045 18.0362C10.947 17.6757 10.3649 17.6734 10.0044 18.0309L8.26385 19.7575C7.90339 20.115 7.90101 20.6971 8.25864 21.0577L15.2136 28.069C15.5712 28.4294 16.1533 28.4318 16.5138 28.0742L29.7363 14.9578C30.0967 14.6001 30.099 14.018 29.7414 13.6576Z" fill="#18AC2F"/>
</svg>
