<svg width="307" height="64" viewBox="0 0 307 64" fill="none" xmlns="http://www.w3.org/2000/svg">
<path d="M86 21.5C86 9.62588 95.6259 0 107.5 0H199.5C211.374 0 221 9.62588 221 21.5C221 33.3741 211.374 43 199.5 43H107.5C95.6259 43 86 33.3741 86 21.5Z" fill="#F8851B"/>
<path d="M110.273 21.8C110.273 26.76 112.933 29.34 117.433 29.34C120.613 29.34 123.133 27.28 123.133 25.2C123.133 24.4 122.333 23.94 121.533 23.94C119.953 23.94 120.013 26.7 117.433 26.7C114.593 26.7 113.553 24.42 113.553 21.8C113.553 18.68 115.253 16.9 117.313 16.9C120.313 16.9 119.753 19.5 121.653 19.5C122.633 19.5 123.133 18.94 123.133 18.02C123.133 16.62 121.073 14.26 117.313 14.26C112.673 14.26 110.273 17.74 110.273 21.8ZM127.286 23.76C127.286 21.86 128.066 20.44 129.766 20.44C131.466 20.44 132.246 21.86 132.246 23.76C132.246 25.54 131.506 27.1 129.766 27.1C128.026 27.1 127.286 25.54 127.286 23.76ZM124.366 23.76C124.366 26.68 125.786 29.26 129.766 29.26C133.746 29.26 135.166 26.68 135.166 23.76C135.166 20.68 133.286 18.28 129.766 18.28C126.246 18.28 124.366 20.68 124.366 23.76ZM137.053 27.8C137.053 28.58 137.373 29.26 138.513 29.26C139.653 29.26 139.973 28.58 139.973 27.8V22.98C139.973 21.52 141.173 20.68 142.193 20.68C143.453 20.68 144.033 21.52 144.033 22.7V27.8C144.033 28.58 144.353 29.26 145.493 29.26C146.633 29.26 146.953 28.58 146.953 27.8V22.12C146.953 19.16 145.033 18.28 143.273 18.28C141.613 18.28 140.553 19.04 139.733 20.12H139.693V19.74C139.693 18.86 139.293 18.28 138.373 18.28C137.453 18.28 137.053 18.86 137.053 19.74V27.8ZM150.039 26.66C150.039 28.38 150.919 29.26 153.039 29.26C154.439 29.26 155.159 28.8 155.159 27.96C155.159 27.34 154.779 26.98 154.139 26.98H153.719C153.199 26.98 152.959 26.74 152.959 26.3V20.46H153.839C154.699 20.46 155.159 20.2 155.159 19.5C155.159 18.8 154.699 18.54 153.839 18.54H152.959V16.76C152.959 15.8 152.379 15.3 151.499 15.3C150.619 15.3 150.039 15.8 150.039 16.76V18.54H149.539C148.719 18.54 148.379 18.86 148.379 19.5C148.379 20.14 148.719 20.46 149.539 20.46H150.039V26.66ZM156.841 27.8C156.841 28.58 157.161 29.26 158.301 29.26C159.441 29.26 159.761 28.58 159.761 27.8V19.74C159.761 18.96 159.441 18.28 158.301 18.28C157.161 18.28 156.841 18.96 156.841 19.74V27.8ZM156.781 15.78C156.781 16.62 157.461 17.3 158.301 17.3C159.141 17.3 159.821 16.62 159.821 15.78C159.821 14.94 159.141 14.26 158.301 14.26C157.461 14.26 156.781 14.94 156.781 15.78ZM162.248 27.8C162.248 28.58 162.568 29.26 163.708 29.26C164.848 29.26 165.168 28.58 165.168 27.8V22.98C165.168 21.52 166.368 20.68 167.388 20.68C168.648 20.68 169.228 21.52 169.228 22.7V27.8C169.228 28.58 169.548 29.26 170.688 29.26C171.828 29.26 172.148 28.58 172.148 27.8V22.12C172.148 19.16 170.228 18.28 168.468 18.28C166.808 18.28 165.748 19.04 164.928 20.12H164.888V19.74C164.888 18.86 164.488 18.28 163.568 18.28C162.648 18.28 162.248 18.86 162.248 19.74V27.8ZM184.374 19.74C184.374 18.96 184.054 18.28 182.914 18.28C181.774 18.28 181.454 18.96 181.454 19.74V24.56C181.454 26.02 180.254 26.86 179.234 26.86C177.974 26.86 177.394 26.02 177.394 24.84V19.74C177.394 18.96 177.074 18.28 175.934 18.28C174.794 18.28 174.474 18.96 174.474 19.74V25.42C174.474 28.38 176.394 29.26 178.154 29.26C179.814 29.26 180.874 28.5 181.694 27.42H181.734V27.8C181.734 28.68 182.134 29.26 183.054 29.26C183.974 29.26 184.374 28.68 184.374 27.8V19.74ZM195.781 24.32C196.761 24.32 197.061 24.06 197.061 23.06C197.061 20.66 195.141 18.28 191.781 18.28C188.321 18.28 186.261 20.56 186.261 23.96C186.261 26.5 187.801 29.26 191.881 29.26C193.641 29.26 196.461 28.44 196.461 26.68C196.461 26.14 195.961 25.54 195.261 25.54C194.081 25.54 194.081 26.98 191.881 26.98C190.181 26.98 189.181 25.86 189.181 24.32H195.781ZM189.181 22.64C189.501 21.22 190.381 20.32 191.841 20.32C193.141 20.32 194.141 21.3 194.301 22.64H189.181Z" fill="white"/>
</svg>
