<svg width="222" height="129" viewBox="0 0 222 129" fill="none" xmlns="http://www.w3.org/2000/svg">
<rect x="8" y="64" width="207" height="65" rx="30.5" fill="#F8851B"/>
<path d="M70 109.768C70 113.272 71.824 114.376 74.608 114.376H93.472C95.776 114.376 97.456 113.704 97.456 111.208C97.456 108.712 95.776 108.04 93.472 108.04H77.872V99.688H91.216C93.28 99.688 94.912 99.112 94.912 96.664C94.912 94.216 93.28 93.64 91.216 93.64H77.872V86.152H93.088C95.392 86.152 97.072 85.48 97.072 82.984C97.072 80.488 95.392 79.816 93.088 79.816H74.608C71.824 79.816 70 80.92 70 84.424V109.768Z" fill="white"/>
<path d="M110.539 106.264L114.571 112.696C115.483 114.136 116.347 115 117.787 115C120.043 115 121.339 113.416 121.339 111.736C121.339 110.728 121.051 110.152 120.667 109.624L115.243 101.56L120.331 94.024C120.763 93.4 121.051 92.68 121.051 91.672C121.051 90.088 119.515 88.648 117.883 88.648C116.779 88.648 115.723 88.936 114.667 90.712L110.875 96.904L106.939 90.424C106.123 89.08 105.211 88.648 104.107 88.648C101.563 88.648 100.363 90.664 100.363 92.152C100.363 92.824 100.699 93.448 101.083 93.976L106.123 101.56L100.747 109.48C100.123 110.392 99.7874 111.112 99.7874 111.736C99.7874 113.656 101.515 115 103.195 115C104.491 115 105.451 114.328 105.931 113.608L110.539 106.264Z" fill="white"/>
<path d="M125.297 111.496C125.297 113.368 126.065 115 128.801 115C131.537 115 132.305 113.368 132.305 111.496V92.152C132.305 90.28 131.537 88.648 128.801 88.648C126.065 88.648 125.297 90.28 125.297 92.152V111.496ZM125.153 82.648C125.153 84.664 126.785 86.296 128.801 86.296C130.817 86.296 132.449 84.664 132.449 82.648C132.449 80.632 130.817 79 128.801 79C126.785 79 125.153 80.632 125.153 82.648Z" fill="white"/>
<path d="M140.096 108.76C140.096 112.888 142.208 115 147.296 115C150.656 115 152.384 113.896 152.384 111.88C152.384 110.392 151.472 109.528 149.936 109.528H148.928C147.68 109.528 147.104 108.952 147.104 107.896V93.88H149.216C151.28 93.88 152.384 93.256 152.384 91.576C152.384 89.896 151.28 89.272 149.216 89.272H147.104V85C147.104 82.696 145.712 81.496 143.6 81.496C141.488 81.496 140.096 82.696 140.096 85V89.272H138.896C136.928 89.272 136.112 90.04 136.112 91.576C136.112 93.112 136.928 93.88 138.896 93.88H140.096V108.76Z" fill="white"/>
</svg>
