<svg width="414" height="736" viewBox="0 0 414 736" fill="none" xmlns="http://www.w3.org/2000/svg">
<path d="M0 0H414V736H0V0Z" fill="#0B38D8"/>
<path d="M0 0H414V736H0V0Z" fill="url(#paint0_linear_21_2)"/>
<path fill-rule="evenodd" clip-rule="evenodd" d="M0 633.033L6.9 616.538C13.8 600.044 27.6 567.055 41.4 575.302C55.2 583.549 69 633.033 82.8 641.28C96.6 649.527 110.4 616.538 124.2 608.291C138 600.044 151.8 616.538 165.6 620.662C179.4 624.786 193.2 616.538 207 628.909C220.8 641.28 234.6 674.269 248.4 678.393C262.2 682.516 276 657.775 289.8 649.527C303.6 641.28 317.4 649.527 331.2 653.651C345 657.775 358.8 657.775 372.6 666.022C386.4 674.269 400.2 690.764 407.1 699.011L414 707.258V732H407.1C400.2 732 386.4 732 372.6 732C358.8 732 345 732 331.2 732C317.4 732 303.6 732 289.8 732C276 732 262.2 732 248.4 732C234.6 732 220.8 732 207 732C193.2 732 179.4 732 165.6 732C151.8 732 138 732 124.2 732C110.4 732 96.6 732 82.8 732C69 732 55.2 732 41.4 732C27.6 732 13.8 732 6.9 732H0V633.033Z" fill="#0099FF" fill-opacity="0.5"/>
<path fill-rule="evenodd" clip-rule="evenodd" d="M414.217 67.0562L407.256 77.9362C400.295 88.8162 386.373 110.576 372.604 105.117C358.834 99.6585 345.217 66.9808 331.447 61.522C317.678 56.0632 303.756 77.8232 289.926 83.2519C276.095 88.6806 262.356 77.778 248.571 75.041C234.787 72.3041 220.956 77.7328 207.202 69.5521C193.448 61.3713 179.769 39.5812 165.985 36.8442C152.2 34.1073 138.309 50.4235 124.478 55.8522C110.648 61.2809 96.8783 55.8221 83.0936 53.0852C69.3088 50.3482 55.5089 50.3331 41.7393 44.8743C27.9698 39.4155 14.2307 28.5129 7.36114 23.0616L0.491577 17.6102L0.582846 1.27894L7.48284 1.28647C14.3828 1.294 28.1828 1.30907 41.9827 1.32413C55.7827 1.3392 69.5826 1.35427 83.3826 1.36933C97.1826 1.3844 110.983 1.39946 124.782 1.41453C138.582 1.4296 152.382 1.44466 166.182 1.45973C179.982 1.47479 193.782 1.48986 207.582 1.50493C221.382 1.51999 235.182 1.53506 248.982 1.55012C262.782 1.56519 276.582 1.58026 290.382 1.59532C304.182 1.61039 317.982 1.62545 331.782 1.64052C345.582 1.65559 359.382 1.67065 373.182 1.68572C386.982 1.70078 400.782 1.71585 407.682 1.72338L414.582 1.73091L414.217 67.0562Z" fill="#0099FF" fill-opacity="0.5"/>
<path fill-rule="evenodd" clip-rule="evenodd" d="M0 647.501L10.005 658.036C19.665 668.572 39.33 689.643 58.995 693.858C79.005 698.072 98.67 685.429 118.335 670.679C138 655.929 157.665 639.072 177.33 641.179C196.995 643.287 217.005 664.358 236.67 666.465C256.335 668.572 276 651.715 295.665 649.608C315.33 647.501 334.995 660.144 355.005 664.358C374.67 668.572 394.335 664.358 403.995 662.251L414 660.144V736H403.995C394.335 736 374.67 736 355.005 736C334.995 736 315.33 736 295.665 736C276 736 256.335 736 236.67 736C217.005 736 196.995 736 177.33 736C157.665 736 138 736 118.335 736C98.67 736 79.005 736 58.995 736C39.33 736 19.665 736 10.005 736H0V647.501Z" fill="#0099FF"/>
<path fill-rule="evenodd" clip-rule="evenodd" d="M414.259 58.1788L404.292 51.1777C394.671 44.177 375.082 30.1752 355.432 27.3572C335.437 24.5388 315.727 32.9047 296.008 42.6685C276.29 52.4323 256.564 63.5941 236.907 62.1741C217.25 60.7541 197.316 46.7519 177.659 45.3319C158.001 43.9119 138.275 55.0737 118.603 56.4497C98.9303 57.8256 79.3111 49.4157 59.3163 46.5974C39.6666 43.7794 19.9865 46.5533 10.3189 47.9405L0.306311 49.3272L0.580465 -0.999986L10.5854 -0.98878C20.2454 -0.977961 39.9103 -0.955935 59.5753 -0.93391C79.5852 -0.911498 99.2502 -0.889473 118.915 -0.867447C138.58 -0.845422 158.245 -0.823396 177.91 -0.801371C197.575 -0.779345 217.585 -0.756933 237.25 -0.734908C256.915 -0.712882 276.58 -0.690857 296.245 -0.668831C315.91 -0.646806 335.574 -0.62478 355.584 -0.602369C375.249 -0.580343 394.914 -0.558318 404.574 -0.547498L414.579 -0.536292L414.259 58.1788Z" fill="#0099FF"/>
<defs>
<linearGradient id="paint0_linear_21_2" x1="131" y1="22" x2="131" y2="758" gradientUnits="userSpaceOnUse">
<stop stop-color="#46C3EB"/>
<stop offset="1" stop-color="white" stop-opacity="0"/>
</linearGradient>
</defs>
</svg>
