<svg width="286" height="73" viewBox="0 0 286 73" fill="none" xmlns="http://www.w3.org/2000/svg">
<path d="M66.799 40.952C66.799 36.632 64.975 34.328 60.367 34.328H40.975C37.039 34.328 34.831 36.536 34.831 40.376C34.831 45.176 38.575 46.424 41.935 46.424H52.207C51.439 54.872 44.143 60.536 35.791 60.536C22.927 60.536 16.207 51.128 16.207 37.496C16.207 20.024 24.751 12.92 35.599 12.92C50.959 12.92 48.079 23.768 55.855 23.768C59.215 23.768 63.247 22.328 63.247 16.856C63.247 10.712 53.935 0.247995 36.463 0.247995C15.055 0.247995 0.463 13.112 0.463 36.44C0.463 55.832 9.775 72.632 34.159 72.632C43.951 72.632 50.191 68.984 54.703 63.32C55.663 69.464 56.911 72.248 61.423 72.248C64.591 72.248 66.799 69.848 66.799 66.968V40.952ZM76.0563 59.288C75.4803 60.824 74.5203 63.608 74.5203 65.336C74.5203 69.56 77.4963 72.248 81.8163 72.248C85.5603 72.248 87.7682 71 88.8243 67.928L92.9523 56.408H118.296L122.328 67.928C123.48 71 125.976 72.248 129.432 72.248C133.464 72.248 136.824 69.176 136.824 65.336C136.824 63.608 135.864 60.824 135.288 59.288L116.28 6.392C114.552 1.496 111.384 0.631996 107.832 0.631996H104.088C100.248 0.631996 97.7523 1.88 96.4083 5.432L76.0563 59.288ZM114.84 45.464H96.4083L105.72 17.72H105.912L114.84 45.464ZM144.696 64.568C144.696 68.504 146.616 72.248 151.704 72.248C156.792 72.248 158.712 68.504 158.712 64.568V21.752H158.904L173.592 67.64C174.648 70.904 177.048 72.248 180.312 72.248C183.576 72.248 185.976 70.904 187.031 67.64L201.72 21.752H201.912V64.568C201.912 68.504 203.832 72.248 208.92 72.248C214.008 72.248 215.928 68.504 215.928 64.568V8.408C215.928 2.07199 211.608 0.631996 207.384 0.631996H202.968C198.072 0.631996 195.768 2.55199 194.135 7.832L180.6 52.184H180.408L166.68 7.832C165.048 2.55199 162.744 0.631996 157.848 0.631996H153.24C149.016 0.631996 144.696 2.07199 144.696 8.408V64.568ZM230.586 61.784C230.586 68.792 234.234 71 239.802 71H277.53C282.138 71 285.498 69.656 285.498 64.664C285.498 59.672 282.138 58.328 277.53 58.328H246.33V41.624H273.018C277.146 41.624 280.41 40.472 280.41 35.576C280.41 30.68 277.146 29.528 273.018 29.528H246.33V14.552H276.762C281.37 14.552 284.73 13.208 284.73 8.216C284.73 3.224 281.37 1.88 276.762 1.88H239.802C234.234 1.88 230.586 4.088 230.586 11.096V61.784Z" fill="white"/>
</svg>
