<svg width="322" height="83" viewBox="0 0 322 83" fill="none" xmlns="http://www.w3.org/2000/svg">
<path d="M47.9734 82.848C45.3494 82.848 43.2374 82.304 41.6374 81.216C40.0374 80.192 38.8214 78.88 37.9894 77.28C37.2214 75.744 36.4214 73.728 35.5894 71.232C32.7094 72.128 29.7334 72.576 26.6614 72.576C21.2854 72.576 17.0614 71.04 13.9894 67.968C10.9814 64.896 9.47738 60 9.47738 53.28C9.47738 47.584 10.5014 41.184 12.5494 34.08C14.5974 26.976 17.5734 20.896 21.4774 15.84C25.4454 10.784 30.1174 8.256 35.4934 8.256C37.4134 8.256 39.0774 8.512 40.4854 9.024C37.6694 10.688 34.9494 14.112 32.3254 19.296C29.7654 24.48 27.6854 30.272 26.0854 36.672C24.4854 43.072 23.6854 48.736 23.6854 53.664V55.392C23.6854 56.48 23.7494 57.28 23.8774 57.792C26.1814 57.216 28.1654 56.928 29.8294 56.928C32.7094 56.928 35.2694 57.792 37.5094 59.52C40.7734 55.296 43.5574 49.568 45.8614 42.336C48.1654 35.04 49.3174 28 49.3174 21.216C49.3174 17.248 48.9654 14.08 48.2614 11.712C47.6214 9.28 46.4054 7.456 44.6134 6.23999C42.8214 5.02399 40.2934 4.41599 37.0294 4.41599C32.1014 4.41599 27.5254 5.43999 23.3014 7.488C19.0774 9.472 15.6854 12.352 13.1254 16.128C10.6294 19.84 9.38138 24.16 9.38138 29.088C9.38138 30.816 9.54138 32.096 9.86138 32.928C10.1814 33.696 10.3414 34.144 10.3414 34.272C7.14138 34.272 4.70938 33.632 3.04538 32.352C1.44538 31.072 0.645375 29.024 0.645375 26.208C0.645375 21.792 2.43738 17.568 6.02138 13.536C9.66938 9.504 14.4694 6.24 20.4214 3.744C26.4374 1.248 32.7414 -5.72205e-06 39.3334 -5.72205e-06C47.3334 -5.72205e-06 53.1254 2.17599 56.7094 6.528C60.2934 10.88 62.0854 16.896 62.0854 24.576C62.0854 29.312 61.4134 34.4 60.0694 39.84C58.7254 45.216 56.6774 50.336 53.9254 55.2C51.1734 60.064 47.7814 64 43.7494 67.008C45.4134 69.504 47.1414 71.424 48.9334 72.768C50.7254 74.112 52.9974 74.784 55.7494 74.784C56.1334 74.784 56.8374 74.72 57.8614 74.592C56.6454 77.728 55.2374 79.872 53.6374 81.024C52.1014 82.24 50.2134 82.848 47.9734 82.848ZM29.2534 64.8C30.6614 64.8 31.8774 64.448 32.9014 63.744C31.6214 61.568 29.7974 60.48 27.4294 60.48C26.4054 60.48 25.4774 60.608 24.6454 60.864C25.5414 63.488 27.0774 64.8 29.2534 64.8ZM72.4571 72.576C69.3851 72.576 66.8891 71.616 64.9691 69.696C63.1131 67.776 62.1851 64.896 62.1851 61.056C62.1851 59.456 62.4411 57.376 62.9531 54.816L69.4811 24H83.3051L76.3931 56.64C76.2011 57.6 76.1051 58.496 76.1051 59.328C76.1051 61.952 77.0651 63.264 78.9851 63.264C80.7771 63.264 82.3131 62.528 83.5931 61.056C84.8731 59.52 85.8971 57.44 86.6651 54.816L93.1931 24H107.017L100.105 56.64C99.8491 57.6 99.7211 58.624 99.7211 59.712C99.7211 60.992 100.009 61.92 100.585 62.496C101.225 63.008 102.249 63.264 103.657 63.264C105.449 63.264 106.985 62.496 108.265 60.96C109.609 59.424 110.665 57.376 111.433 54.816H115.465C113.097 61.728 110.153 66.432 106.633 68.928C103.177 71.36 99.6891 72.576 96.1691 72.576C93.4171 72.576 91.2091 71.808 89.5451 70.272C87.9451 68.736 86.9851 66.464 86.6651 63.456C84.4891 66.976 82.1851 69.376 79.7531 70.656C77.3851 71.936 74.9531 72.576 72.4571 72.576ZM125.15 72.576C120.414 72.576 116.734 71.36 114.11 68.928C111.486 66.432 110.174 62.56 110.174 57.312C110.174 52.896 111.038 48.032 112.766 42.72C114.494 37.408 117.31 32.832 121.214 28.992C125.118 25.088 130.078 23.136 136.094 23.136C143.134 23.136 146.654 26.208 146.654 32.352C146.654 35.936 145.63 39.232 143.582 42.24C141.534 45.248 138.814 47.68 135.422 49.536C132.03 51.328 128.414 52.352 124.574 52.608C124.446 54.528 124.382 55.808 124.382 56.448C124.382 59.584 124.926 61.728 126.014 62.88C127.102 63.968 128.862 64.512 131.294 64.512C134.75 64.512 137.694 63.712 140.126 62.112C142.622 60.512 145.342 58.08 148.286 54.816H151.55C144.446 66.656 135.646 72.576 125.15 72.576ZM125.342 48C127.71 47.872 129.95 47.04 132.062 45.504C134.238 43.968 135.966 42.016 137.246 39.648C138.59 37.28 139.262 34.784 139.262 32.16C139.262 29.536 138.462 28.224 136.862 28.224C134.558 28.224 132.286 30.24 130.046 34.272C127.87 38.304 126.302 42.88 125.342 48ZM159.21 72.576C156.138 72.576 153.546 72 151.434 70.848C149.322 69.632 147.754 68.096 146.73 66.24C145.706 64.32 145.194 62.336 145.194 60.288C145.194 58.176 145.706 56.352 146.73 54.816C147.69 53.216 148.874 52.064 150.282 51.36C152.778 46.88 154.954 42.368 156.81 37.824C158.666 33.216 160.426 28.256 162.09 22.944L176.298 21.024C176.618 29.216 177.162 38.08 177.93 47.616C178.25 51.456 178.41 54.24 178.41 55.968C178.41 57.44 178.282 58.656 178.026 59.616C181.034 57.888 183.338 56.288 184.938 54.816H188.97C184.874 59.552 179.978 63.552 174.282 66.816C172.426 68.8 170.122 70.272 167.37 71.232C164.682 72.128 161.962 72.576 159.21 72.576ZM156.138 64.992C158.506 64.992 160.49 64.288 162.09 62.88C163.69 61.472 164.49 59.2 164.49 56.064C164.49 54.144 164.298 51.456 163.914 48C163.274 40.704 162.858 35.808 162.666 33.312C161.13 38.368 158.538 44.416 154.89 51.456C156.362 52.224 157.098 53.344 157.098 54.816C157.098 56.032 156.682 57.12 155.85 58.08C155.082 59.04 154.09 59.52 152.874 59.52C151.53 59.52 150.666 59.104 150.282 58.272C150.282 60.576 150.73 62.272 151.626 63.36C152.586 64.448 154.09 64.992 156.138 64.992ZM194.426 72.576C191.354 72.576 188.858 71.616 186.938 69.696C185.082 67.776 184.154 64.896 184.154 61.056C184.154 59.456 184.41 57.376 184.922 54.816L190.682 27.84H187.514L188.282 24H191.45L194.33 10.752L208.538 8.832L205.274 24H211.034L210.266 27.84H204.506L198.362 56.64C198.106 57.6 197.978 58.624 197.978 59.712C197.978 60.992 198.266 61.92 198.842 62.496C199.482 63.008 200.506 63.264 201.914 63.264C203.77 63.264 205.498 62.496 207.098 60.96C208.698 59.36 209.85 57.312 210.554 54.816H214.586C212.218 61.728 209.178 66.432 205.466 68.928C201.754 71.36 198.074 72.576 194.426 72.576ZM226.548 18.816C224.436 18.816 222.644 18.08 221.172 16.608C219.7 15.136 218.964 13.344 218.964 11.232C218.964 9.12 219.7 7.328 221.172 5.856C222.644 4.32 224.436 3.55199 226.548 3.55199C228.66 3.55199 230.452 4.32 231.924 5.856C233.46 7.328 234.228 9.12 234.228 11.232C234.228 13.344 233.46 15.136 231.924 16.608C230.452 18.08 228.66 18.816 226.548 18.816ZM220.02 72.576C216.948 72.576 214.452 71.616 212.532 69.696C210.676 67.776 209.748 64.896 209.748 61.056C209.748 59.456 210.004 57.376 210.516 54.816L217.044 24H230.868L223.956 56.64C223.7 57.6 223.572 58.624 223.572 59.712C223.572 60.992 223.86 61.92 224.436 62.496C225.076 63.008 226.1 63.264 227.508 63.264C229.364 63.264 231.092 62.496 232.692 60.96C234.292 59.36 235.444 57.312 236.148 54.816H240.18C237.812 61.728 234.772 66.432 231.06 68.928C227.348 71.36 223.668 72.576 220.02 72.576ZM250.125 72.384C245.389 72.384 241.645 71.168 238.893 68.736C236.141 66.304 234.765 62.464 234.765 57.216C234.765 52.864 235.661 48.032 237.453 42.72C239.245 37.408 242.125 32.832 246.093 28.992C250.061 25.088 255.053 23.136 261.069 23.136C269.261 23.136 273.357 28.256 273.357 38.496V38.592C273.549 38.656 273.901 38.688 274.413 38.688C276.525 38.688 278.957 38.144 281.709 37.056C284.461 35.904 286.957 34.528 289.197 32.928L290.061 35.52C288.205 37.504 285.773 39.2 282.765 40.608C279.821 41.952 276.589 42.912 273.069 43.488C272.557 49.312 271.245 54.4 269.133 58.752C267.021 63.104 264.301 66.464 260.973 68.832C257.645 71.2 254.029 72.384 250.125 72.384ZM253.965 63.744C255.501 63.744 257.037 62.88 258.573 61.152C260.109 59.36 261.453 56.96 262.605 53.952C263.757 50.88 264.589 47.488 265.101 43.776C263.373 43.392 262.509 42.048 262.509 39.744C262.509 37.12 263.501 35.392 265.485 34.56C265.357 32.448 265.037 31.008 264.525 30.24C264.013 29.408 263.117 28.992 261.837 28.992C259.725 28.992 257.677 30.528 255.693 33.6C253.709 36.672 252.109 40.352 250.893 44.64C249.677 48.928 249.069 52.704 249.069 55.968C249.069 59.04 249.421 61.12 250.125 62.208C250.829 63.232 252.109 63.744 253.965 63.744ZM311.321 72.576C307.929 72.576 305.465 71.552 303.929 69.504C302.393 67.456 301.625 64.864 301.625 61.728C301.625 60.384 301.785 58.88 302.105 57.216C302.425 55.488 302.745 53.824 303.065 52.224C303.449 50.624 303.705 49.6 303.833 49.152C304.345 46.912 304.825 44.704 305.273 42.528C305.721 40.352 305.945 38.592 305.945 37.248C305.945 33.984 304.793 32.352 302.489 32.352C300.825 32.352 299.353 33.184 298.073 34.848C296.793 36.448 295.769 38.56 295.001 41.184L288.473 72H274.649L284.825 24H298.649L297.593 28.992C300.793 25.408 304.537 23.616 308.825 23.616C312.089 23.616 314.681 24.512 316.601 26.304C318.521 28.096 319.481 30.816 319.481 34.464C319.481 36.32 319.257 38.4 318.809 40.704C318.361 42.944 317.721 45.696 316.889 48.96C316.377 50.944 315.897 52.896 315.449 54.816C315.065 56.672 314.873 58.144 314.873 59.232C314.873 60.512 315.161 61.504 315.737 62.208C316.313 62.912 317.305 63.264 318.713 63.264C320.249 63.264 321.305 63.072 321.881 62.688C321.497 65.952 320.313 68.416 318.329 70.08C316.409 71.744 314.073 72.576 311.321 72.576Z" fill="white"/>
</svg>
