<svg width="207" height="65" viewBox="0 0 207 65" fill="none" xmlns="http://www.w3.org/2000/svg">
<g id="Group 15">
<rect id="Rectangle 2" width="207" height="65" rx="32.5" fill="#F8851B"/>
<g id="Start">
<path d="M59.056 27.872C56.56 27.296 53.68 26.528 53.68 24.128C53.68 21.728 55.696 20.048 59.344 20.048C66.688 20.048 66.016 25.184 69.664 25.184C71.584 25.184 73.264 24.032 73.264 22.064C73.264 17.456 66.016 14 59.872 14C53.2 14 46.096 16.88 46.096 24.56C46.096 28.256 47.392 32.192 54.544 34.016L63.424 36.272C66.112 36.944 66.784 38.48 66.784 39.872C66.784 42.176 64.528 44.432 60.448 44.432C52.48 44.432 53.584 38.192 49.312 38.192C47.392 38.192 46 39.536 46 41.456C46 45.2 50.464 50.192 60.448 50.192C69.952 50.192 74.656 45.536 74.656 39.296C74.656 35.264 72.832 30.992 65.632 29.36L59.056 27.872Z" fill="white"/>
<path d="M81.3554 43.76C81.3554 47.888 83.4674 50 88.5554 50C91.9154 50 93.6434 48.896 93.6434 46.88C93.6434 45.392 92.7314 44.528 91.1954 44.528H90.1874C88.9394 44.528 88.3634 43.952 88.3634 42.896V28.88H90.4754C92.5394 28.88 93.6434 28.256 93.6434 26.576C93.6434 24.896 92.5394 24.272 90.4754 24.272H88.3634V20C88.3634 17.696 86.9714 16.496 84.8594 16.496C82.7474 16.496 81.3554 17.696 81.3554 20V24.272H80.1554C78.1874 24.272 77.3714 25.04 77.3714 26.576C77.3714 28.112 78.1874 28.88 80.1554 28.88H81.3554V43.76Z" fill="white"/>
<path d="M120.577 30.848C120.577 25.808 115.921 23.648 109.201 23.648C102.001 23.648 98.065 27.2 98.065 29.984C98.065 31.424 99.265 32.672 101.041 32.672C103.825 32.672 103.969 28.832 109.153 28.832C111.505 28.832 113.569 29.696 113.569 31.712C113.569 33.728 112.225 34.112 110.545 34.304L106.273 34.784C100.897 35.408 96.481 37.04 96.481 42.848C96.481 47.264 100.417 50 104.401 50C108.097 50 111.265 48.944 114.001 45.92C114.097 48.08 115.105 50 118.129 50C119.809 50 121.297 48.896 121.297 47.312C121.297 46.208 120.577 45.536 120.577 42.608V30.848ZM113.569 40.304C113.569 42.896 111.217 45.392 107.377 45.392C104.977 45.392 103.489 44.096 103.489 42.512C103.489 40.4 105.073 39.488 108.001 39.056L110.545 38.672C111.361 38.528 112.801 38.288 113.569 37.568V40.304Z" fill="white"/>
<path d="M127.025 46.496C127.025 48.368 127.793 50 130.529 50C133.265 50 134.033 48.368 134.033 46.496V38.336C134.033 32.528 135.569 30.56 138.401 30.56H139.649C141.377 30.56 143.105 29.648 143.105 27.056C143.105 25.088 141.473 23.648 139.265 23.648C135.857 23.648 134.273 26.672 133.457 29.6H133.361V26.912C133.361 24.8 131.969 23.648 130.193 23.648C128.417 23.648 127.025 24.8 127.025 26.912V46.496Z" fill="white"/>
<path d="M148.012 43.76C148.012 47.888 150.124 50 155.212 50C158.572 50 160.3 48.896 160.3 46.88C160.3 45.392 159.388 44.528 157.852 44.528H156.844C155.596 44.528 155.02 43.952 155.02 42.896V28.88H157.132C159.196 28.88 160.3 28.256 160.3 26.576C160.3 24.896 159.196 24.272 157.132 24.272H155.02V20C155.02 17.696 153.628 16.496 151.516 16.496C149.404 16.496 148.012 17.696 148.012 20V24.272H146.812C144.844 24.272 144.028 25.04 144.028 26.576C144.028 28.112 144.844 28.88 146.812 28.88H148.012V43.76Z" fill="white"/>
</g>
</g>
</svg>
