<svg width="307" height="64" viewBox="0 0 307 64" fill="none" xmlns="http://www.w3.org/2000/svg">
<path d="M86 21.5C86 9.62588 95.6259 0 107.5 0H199.5C211.374 0 221 9.62588 221 21.5C221 33.3741 211.374 43 199.5 43H107.5C95.6259 43 86 33.3741 86 21.5Z" fill="#F8851B"/>
<path d="M98.604 27.08C98.604 28.54 99.364 29 100.524 29H105.344C108.184 29 110.644 27.76 110.644 24.74C110.644 22.76 109.644 21.68 108.124 21.28V21.24C109.484 20.7 110.144 19.54 110.144 18.32C110.144 15.14 107.284 14.6 104.884 14.6H100.524C99.364 14.6 98.604 15.06 98.604 16.52V27.08ZM101.884 22.6H104.244C105.844 22.6 107.364 22.82 107.364 24.56C107.364 26.22 105.924 26.48 104.644 26.48H101.884V22.6ZM101.884 17H104.484C105.704 17 106.864 17.38 106.864 18.76C106.864 19.9 106.124 20.52 104.584 20.52H101.884V17ZM122.378 21.28C122.378 19.18 120.438 18.28 117.638 18.28C114.638 18.28 112.998 19.76 112.998 20.92C112.998 21.52 113.498 22.04 114.238 22.04C115.398 22.04 115.458 20.44 117.618 20.44C118.598 20.44 119.458 20.8 119.458 21.64C119.458 22.48 118.898 22.64 118.198 22.72L116.418 22.92C114.178 23.18 112.338 23.86 112.338 26.28C112.338 28.12 113.978 29.26 115.638 29.26C117.178 29.26 118.498 28.82 119.638 27.56C119.678 28.46 120.098 29.26 121.358 29.26C122.058 29.26 122.678 28.8 122.678 28.14C122.678 27.68 122.378 27.4 122.378 26.18V21.28ZM119.458 25.22C119.458 26.3 118.478 27.34 116.878 27.34C115.878 27.34 115.258 26.8 115.258 26.14C115.258 25.26 115.918 24.88 117.138 24.7L118.198 24.54C118.538 24.48 119.138 24.38 119.458 24.08V25.22ZM124.344 23.98C124.344 27.04 126.044 29.26 129.644 29.26C132.644 29.26 134.084 27.5 134.084 26.22C134.084 25.64 133.604 25.1 132.864 25.1C131.324 25.1 131.764 26.98 129.724 26.98C128.124 26.98 127.264 25.8 127.264 23.98C127.264 21.34 128.604 20.56 129.744 20.56C131.844 20.56 131.344 22.28 132.724 22.28C133.464 22.28 134.084 21.86 134.084 21.02C134.084 19.66 132.264 18.28 129.824 18.28C126.244 18.28 124.344 20.62 124.344 23.98ZM135.646 27.8C135.646 28.76 136.226 29.26 137.106 29.26C137.986 29.26 138.566 28.76 138.566 27.8V25.58L139.586 24.68L142.346 28.58C142.566 28.9 142.946 29.26 143.666 29.26C144.446 29.26 145.046 28.58 145.046 27.84C145.046 27.36 144.846 27.04 144.746 26.9L141.706 22.82L143.866 20.56C144.126 20.28 144.306 20.12 144.306 19.6C144.306 18.86 143.586 18.28 142.926 18.28C142.486 18.28 142.106 18.52 141.806 18.84L138.566 22.44V15.8C138.566 14.84 137.986 14.34 137.106 14.34C136.226 14.34 135.646 14.84 135.646 15.8V27.8ZM152.862 27.62C152.862 28.6 153.502 29.26 154.502 29.26C155.502 29.26 156.142 28.6 156.142 27.62V22.82H162.102V27.62C162.102 28.6 162.742 29.26 163.742 29.26C164.742 29.26 165.382 28.6 165.382 27.62V15.98C165.382 15 164.742 14.34 163.742 14.34C162.742 14.34 162.102 15 162.102 15.98V20.06H156.142V15.98C156.142 15 155.502 14.34 154.502 14.34C153.502 14.34 152.862 15 152.862 15.98V27.62ZM170.548 23.76C170.548 21.86 171.328 20.44 173.028 20.44C174.728 20.44 175.508 21.86 175.508 23.76C175.508 25.54 174.768 27.1 173.028 27.1C171.288 27.1 170.548 25.54 170.548 23.76ZM167.628 23.76C167.628 26.68 169.048 29.26 173.028 29.26C177.008 29.26 178.428 26.68 178.428 23.76C178.428 20.68 176.548 18.28 173.028 18.28C169.508 18.28 167.628 20.68 167.628 23.76ZM180.314 27.8C180.314 28.58 180.634 29.26 181.774 29.26C182.914 29.26 183.234 28.58 183.234 27.8V22.94C183.234 21.58 184.234 20.68 185.354 20.68C186.494 20.68 186.954 21.52 186.954 22.56V27.8C186.954 28.58 187.274 29.26 188.414 29.26C189.554 29.26 189.874 28.58 189.874 27.8V22.94C189.874 21.58 190.874 20.68 191.994 20.68C193.134 20.68 193.594 21.52 193.594 22.56V27.8C193.594 28.58 193.914 29.26 195.054 29.26C196.194 29.26 196.514 28.58 196.514 27.8V21.82C196.514 19.2 194.894 18.28 192.874 18.28C191.294 18.28 190.254 18.98 189.434 20.12C188.894 18.74 187.634 18.28 186.634 18.28C185.154 18.28 183.874 18.96 183.114 20.12H183.074V19.74C183.074 18.86 182.554 18.28 181.694 18.28C180.834 18.28 180.314 18.86 180.314 19.74V27.8ZM207.91 24.32C208.89 24.32 209.19 24.06 209.19 23.06C209.19 20.66 207.27 18.28 203.91 18.28C200.45 18.28 198.39 20.56 198.39 23.96C198.39 26.5 199.93 29.26 204.01 29.26C205.77 29.26 208.59 28.44 208.59 26.68C208.59 26.14 208.09 25.54 207.39 25.54C206.21 25.54 206.21 26.98 204.01 26.98C202.31 26.98 201.31 25.86 201.31 24.32H207.91ZM201.31 22.64C201.63 21.22 202.51 20.32 203.97 20.32C205.27 20.32 206.27 21.3 206.43 22.64H201.31Z" fill="white"/>
</svg>
